# xmcd
#
# Track frame offsets:
#	150
#	19125
#	30975
#	45225
#	62475
#	78300
#	91575
#	110400
#	122550
#	135900
#	154725
#	166650
#	181396
#	193096
#
# Disc length: 2728 seconds
#
# Revision: 0
# Processed by: cddbd v1.4b42PL0 Copyright (c) Steve Scherf et al.
# Submitted via: EasyCDDAExtractor 4.5.0.1
#
DISCID=980aa60e
DTITLE=Mike Krueger - Country Mike und die Quickborn Cowboys
DYEAR=1999
DGENRE=country
TTITLE0=Der Nippel
TTITLE1=Das Zweiersofa DOTTEVIK
TTITLE2=Bodo mit dem Bagger
TTITLE3=Rudi mit dem gelben Nummernschild
TTITLE4=Nockermann
TTITLE5=Mein Schäferhund der Edgar
TTITLE6=Ich bin Bundeswehrsoldat
TTITLE7=Sie ist eine Hausfrau
TTITLE8=Born in Quickborn
TTITLE9=Mein Gott Walther
TTITLE10=Stuntman bei Karl May
TTITLE11=Manchmal glaub ich, Du liebst mich nicht mehr
TTITLE12=Salakrokeisanofant
TTITLE13=Mama ist im Himmel bei John Wayne
EXTD=
EXTT0=
EXTT1=
EXTT2=
EXTT3=
EXTT4=
EXTT5=
EXTT6=
EXTT7=
EXTT8=
EXTT9=
EXTT10=
EXTT11=
EXTT12=
EXTT13=
PLAYORDER=
